<?xml version="1.0" encoding="utf-8"?>
<!-- Generator: Adobe Illustrator 25.2.0, SVG Export Plug-In . SVG Version: 6.00 Build 0)  -->
<svg version="1.1" id="Layer_1" xmlns="http://www.w3.org/2000/svg" xmlns:xlink="http://www.w3.org/1999/xlink" width="50px" height="50px"
	 viewBox="0 0 50 50" style="enable-background:new 0 0 50 50;" xml:space="preserve">
<style type="text/css">
	.st0{fill:#FFF;}
</style>
<path class="st0" d="M43.81,13.79L37.49,3.06l-12.5-0.15l-12.5,0.3L6.02,13.79l-6.18,10.88L6.02,35.7l6.32,10.74l12.5,0.15
	l12.5-0.15l6.32-10.74l6.18-10.88L43.81,13.79z M34.26,8.06c0,0.15,0,0.15-0.15,0.15c0,0.15-0.15,0.15-0.15,0.3
	c-0.15,0.15-0.15,0.15-0.44,0.44c-0.15,0.15-0.29,0.3-0.59,0.44c-1.32,0.88-2.35,1.91-3.24,2.94c-4.7,5.15-6.91,9.7-6.47,13.68v0.3
	l1.62,0.3c1.91,0.3,3.38,0.88,4.41,1.91s1.76,2.35,1.91,3.97c0.59,3.38-0.15,5.88-1.76,7.65c-0.88,0.88-1.91,1.47-2.94,1.91
	c-1.03,0.44-2.35,0.59-3.53,0.44C17.2,41.88,14.55,38.2,15.29,31c0.74-9.26,6.18-16.91,16.18-22.94c1.18-0.74,1.91-0.88,2.2-0.59
	c0.15,0.15,0.15,0.15,0.29,0.15c0.29,0.15,0.29,0.15,0.29,0.15L34.26,8.06C34.26,7.91,34.26,7.91,34.26,8.06z"/>
</svg>
